<svg id="Capa_1" enable-background="new 0 0 512.013 512.013" height="512" viewBox="0 0 512.013 512.013" width="512" xmlns="http://www.w3.org/2000/svg"><g><path d="m256.001 449.794c14.823 0 29.679 3.467 42.964 10.026 3.715 1.835 8.211.31 10.045-3.404s.31-8.212-3.404-10.045c-9.252-4.568-19.163-7.837-29.328-9.712v-27.254c17.046 10.275 36.827 13.678 57.323 8.187 41.52-11.125 51.393-49.129 51.792-50.742.621-2.504-.088-5.151-1.878-7.009-1.152-1.196-28.701-29.172-70.225-18.048-17.294 4.634-29.097 13.931-37.013 23.32v-86.063l3.522-5.533c2.225-3.494 1.195-8.13-2.299-10.354-3.491-2.224-8.129-1.195-10.354 2.299-49.968 78.49-11.86 18.63-26.976 42.373h-7.857l20.468-57.313c2.121-5.933-2.287-12.188-8.587-12.188h-30.259l32.229-90.243h36.104l-18.188 50.93c-3.23 9.04 3.486 18.572 13.087 18.572h20.455l-11.479 18.03c-2.224 3.494-1.194 8.13 2.299 10.354 3.495 2.225 8.131 1.196 10.355-2.299l12.558-19.725c5.881-9.238-.772-21.36-11.724-21.36h-20.898l18.188-50.931c3.228-9.04-3.49-18.57-13.089-18.57h-38.446c-5.858 0-11.117 3.707-13.088 9.223l-33.015 92.447c-3.23 9.041 3.486 18.572 13.087 18.572h23.478l-19.148 53.622c-2.762 7.728 2.979 15.878 11.188 15.878h7.844v22.19c-7.915-9.388-19.719-18.686-37.013-23.32-41.52-11.124-69.072 16.852-70.225 18.048-1.79 1.858-2.499 4.505-1.878 7.009.399 1.612 10.272 39.617 51.792 50.742 20.468 5.483 40.249 2.101 57.323-8.189v47.331c-32.544 5.994-61.225 26.215-77.641 55.726l-4.723 8.49c-2.776 4.991.84 11.146 6.555 11.146h192.164c5.711 0 9.332-6.151 6.555-11.146-6.043-10.864-10.89-20.498-22.644-32.48-2.901-2.958-7.649-3.002-10.606-.102s-3.003 7.649-.103 10.606c5.36 5.464 10.056 11.549 13.988 18.122h-166.544c17.472-29.199 49.097-47.211 83.269-47.213zm61.173-93.512c25.881-6.936 44.947 5.208 52.274 11.083-3.417 8.772-13.862 28.807-39.729 35.737-18.986 5.089-34.306-.092-44.013-5.533l39.682-10.633c4.001-1.072 6.375-5.185 5.303-9.186s-5.182-6.374-9.186-5.304l-39.679 10.632c5.689-9.568 16.367-21.71 35.348-26.796zm-134.883 26.732c-25.879-6.934-36.322-26.984-39.73-35.735 7.345-5.889 26.405-18.019 52.275-11.085 18.986 5.087 29.664 17.233 35.351 26.799l-39.682-10.633c-4.003-1.074-8.114 1.303-9.186 5.304s1.302 8.113 5.303 9.186l39.679 10.632c-9.712 5.442-25.028 10.619-44.01 5.532zm68.44 51.904c0-40.837 0 69.65 0-116.034.933-1.044.51-.506 10.547-16.273v132.309c-3.461-.165-6.931-.172-10.547-.002z"/><path d="m10.678 190.731c-6.886 6.886-10.678 16.041-10.678 25.78v103.19c0 20.638 16.985 37.653 37.641 37.653 17.919 0 32.767-12.82 36.677-29.66 14.519-3.069 25.819-14.426 28.894-28.844 17.068-3.633 29.665-18.709 29.665-36.764v-27.976l35.764-35.765c17.34-17.339 26.89-40.393 26.89-64.915v-52.067c0-4.142-3.357-7.5-7.5-7.5s-7.5 3.358-7.5 7.5v52.067c0 20.515-7.989 39.802-22.496 54.308-10.745 10.746-32.31 32.311-43.073 43.075-8.833 8.833-23.206 8.832-32.037 0-8.941-8.941-8.727-23.31 0-32.037l38.739-38.739c2.929-2.929 2.929-7.678 0-10.606-2.93-2.929-7.678-2.929-10.607 0l-38.742 38.739c-12.444 12.445-14.409 31.678-5.525 46.235-4.214 6.055-6.484 13.238-6.484 20.771v63.929c0 12.484-10.16 23.47-23.098 23.245-12.245-.235-22.208-10.395-22.208-22.649v-103.19c0-5.731 2.232-11.12 6.285-15.173l56.815-56.814c11.902-11.903 18.458-27.73 18.459-44.565l-.001-84.953h83.972v31.357c0 4.142 3.357 7.5 7.5 7.5s7.5-3.358 7.5-7.5v-38.857c0-4.142-3.357-7.5-7.5-7.5h-98.972c-4.14 0-7.5 3.358-7.5 7.5l.001 92.452c-.001 12.829-4.996 24.889-14.066 33.959zm64.629 120.993v-56.549c0-3.326.751-6.536 2.174-9.437 3.579 2.484 7.496 4.277 11.563 5.377v39.802c0 9.257-5.544 17.334-13.737 20.807zm42.569-64.379v14.74c0 9.387-5.665 17.435-13.832 20.849v-30.85c4.811-.652 9.519-2.231 13.832-4.739z"/><path d="m444.52 133.917c-9.07-9.07-14.065-21.13-14.065-33.958v-92.453c0-4.142-3.357-7.5-7.5-7.5h-98.971c-4.143 0-7.5 3.358-7.5 7.5v125.924c0 24.521 9.549 47.575 26.888 64.915l35.763 35.762v27.978c-.001 18.055 12.596 33.131 29.665 36.764 3.075 14.419 14.376 25.776 28.896 28.844 4.016 17.299 19.416 30.019 37.396 29.653 20.358-.389 36.922-17.277 36.922-37.646v-103.19c0-9.738-3.793-18.893-10.679-25.779zm-50.386 128.169v-14.728c4.239 2.475 8.922 4.088 13.832 4.75v30.827c-8.168-3.414-13.833-11.462-13.832-20.849zm28.863 30.029c-.032-5.746-.031 15.803-.031-40.973 4.132-1.118 8.037-2.937 11.569-5.398 1.421 2.899 2.171 6.107 2.171 9.431l-.001 56.55c-7.767-3.29-13.251-10.782-13.708-19.61zm74.016 27.586c0 12.254-9.963 22.415-22.209 22.649-12.912.23-23.099-10.735-23.099-23.245l.001-63.929c0-7.533-2.27-14.716-6.484-20.771 8.883-14.557 6.919-33.79-5.525-46.235l-38.739-38.739c-2.93-2.929-7.678-2.929-10.607 0s-2.929 7.678 0 10.606l38.739 38.739c8.33 8.33 8.969 21.885.996 30.965-8.789 9.995-23.919 10.186-33.032 1.072l-43.075-43.075c-14.506-14.506-22.495-33.793-22.495-54.308v-118.424h83.971v84.953c0 16.835 6.556 32.662 18.459 44.565l56.813 56.814c4.054 4.053 6.286 9.442 6.286 15.173z"/></g></svg>