<?xml version="1.0" encoding="utf-8"?>
<!-- Generator: Adobe Illustrator 19.0.0, SVG Export Plug-In . SVG Version: 6.00 Build 0)  -->
<svg version="1.1" id="Layer_1" xmlns="http://www.w3.org/2000/svg" xmlns:xlink="http://www.w3.org/1999/xlink" x="0px" y="0px"
	 viewBox="0 0 960 540" style="enable-background:new 0 0 960 540;" xml:space="preserve">
<style type="text/css">
	.st0{fill:#52FFEE;}
	.st1{fill:none;stroke:#52FFEE;stroke-width:3;stroke-miterlimit:10;}
</style>
<g id="XMLID_6_">
	<path id="XMLID_8_" class="st0" d="M209.8,314.5h-4.4l57.8-142.8h5.2l56.4,142.8h-4.4l-18.8-47h-72.8L209.8,314.5z M266,175.7h-0.4
		l-35.2,87.8H300L266,175.7z"/>
	<path id="XMLID_11_" class="st0" d="M337.6,171.7v142.8h-4V171.7H337.6z"/>
	<path id="XMLID_13_" class="st0" d="M360.1,283.2c1.5,5.9,3.9,11.1,7.1,15.5c3.2,4.4,7.3,7.9,12.4,10.4c5.1,2.5,11.3,3.8,18.6,3.8
		c10.8,0,19.8-2.8,26.9-8.5c7.1-5.7,11.6-14.2,13.3-25.5h4c-1.5,12-6.2,21.3-14.2,27.9c-8,6.6-17.9,9.9-29.6,9.9
		c-8,0.1-14.8-1.1-20.5-3.8c-5.7-2.7-10.3-6.4-13.9-11.3c-3.6-4.9-6.3-10.6-8-17.2c-1.7-6.6-2.6-13.7-2.6-21.3
		c0-8.5,1.3-16.1,3.8-22.8c2.5-6.7,5.9-12.3,10-16.9c4.1-4.6,8.9-8.1,14.4-10.5c5.5-2.4,11.1-3.6,16.8-3.6c8,0,14.9,1.5,20.7,4.6
		c5.8,3.1,10.5,7.1,14.2,12.2c3.7,5.1,6.3,10.9,8,17.4c1.7,6.5,2.4,13.3,2.1,20.4h-86C357.7,270.8,358.6,277.3,360.1,283.2z
		 M437,242c-1.7-5.7-4.3-10.6-7.7-14.9c-3.4-4.3-7.6-7.6-12.7-10.1c-5.1-2.5-10.9-3.7-17.6-3.7c-5.6,0-10.8,1.1-15.7,3.2
		c-4.9,2.1-9.1,5.2-12.8,9.3c-3.7,4.1-6.6,9-8.9,14.7c-2.3,5.7-3.6,12.2-4,19.4h82C439.6,253.6,438.7,247.7,437,242z"/>
	<path id="XMLID_16_" class="st0" d="M538.2,295c-2.3,4.6-5.2,8.5-8.9,11.7c-3.7,3.2-7.9,5.7-12.8,7.4c-4.9,1.7-10.2,2.6-16.1,2.6
		c-7.3,0-13.8-1.4-19.5-4.1c-5.7-2.7-10.4-6.4-14.3-11.1c-3.9-4.7-6.8-10.1-8.8-16.3s-3-12.8-3-19.9c0-7.5,1-14.6,2.9-21.3
		c1.9-6.7,4.9-12.7,8.8-17.8c3.9-5.1,8.9-9.2,15-12.3c6.1-3.1,13.2-4.6,21.3-4.6c4.8,0,9.4,0.7,13.8,2.2c4.4,1.5,8.3,3.6,11.8,6.4
		c3.5,2.8,6.4,6.3,8.7,10.5c2.3,4.2,3.8,9,4.5,14.5h-4c-0.8-5.1-2.3-9.4-4.4-13.1c-2.1-3.7-4.7-6.7-7.8-9.2
		c-3.1-2.5-6.5-4.3-10.4-5.5c-3.9-1.2-7.9-1.8-12.2-1.8c-8.1,0-15,1.6-20.7,4.7c-5.7,3.1-10.2,7.2-13.6,12.2s-5.9,10.6-7.4,16.8
		c-1.5,6.2-2.3,12.3-2.3,18.3c0,6.3,0.9,12.3,2.7,18c1.8,5.7,4.4,10.8,7.9,15.2c3.5,4.4,7.8,7.9,13,10.5c5.2,2.6,11.2,3.9,18,3.9
		c5.1,0,9.8-0.8,14.2-2.3c4.4-1.5,8.3-3.8,11.7-6.7c3.4-2.9,6.2-6.4,8.3-10.5c2.1-4.1,3.4-8.7,3.8-13.9h4
		C541.9,285.2,540.5,290.4,538.2,295z"/>
	<path id="XMLID_18_" class="st0" d="M570.6,294.5c0,3.9,0.4,6.9,1.3,9c0.9,2.1,2,3.7,3.3,4.8c1.3,1.1,2.8,1.7,4.4,1.9
		c1.6,0.2,3.2,0.3,4.8,0.3c2,0,3.8,0,5.4-0.1c1.6-0.1,2.7-0.2,3.4-0.5v4c-1.2,0.1-2.4,0.3-3.5,0.4c-1.1,0.1-3.2,0.2-6.3,0.2
		c-4.7,0-8.6-1.4-11.9-4.1c-3.3-2.7-4.9-7.8-4.9-15.1v-79.6h-18.8v-4h18.8v-32.4h4v32.4h23.2v4h-23.2V294.5z"/>
	<path id="XMLID_20_" class="st0" d="M607.8,314.5V211.7h4v25.4h0.4c0.9-3.9,2.4-7.5,4.4-10.9c2-3.4,4.7-6.4,8-8.9
		c3.3-2.5,7.3-4.5,11.9-6c4.6-1.5,10-2.1,16.1-2v4c-7.1-0.4-13.2,0.6-18.3,2.9c-5.1,2.3-9.4,5.5-12.7,9.6c-3.3,4.1-5.8,8.8-7.4,14.1
		c-1.6,5.3-2.4,10.8-2.4,16.4v58.2H607.8z"/>
	<path id="XMLID_22_" class="st0" d="M657.2,242.8c2-6.5,5-12.2,8.9-17.1c3.9-4.9,8.8-8.9,14.5-11.9c5.7-3,12.4-4.5,20-4.5
		c7.5,0,14.1,1.5,19.8,4.5c5.7,3,10.6,7,14.5,11.9c3.9,4.9,6.9,10.6,8.9,17.1c2,6.5,3,13.2,3,20.3c0,7.1-1,13.8-3,20.3
		c-2,6.5-5,12.2-8.9,17.1c-3.9,4.9-8.8,8.9-14.5,11.8c-5.7,2.9-12.4,4.4-20,4.4c-7.5,0-14.1-1.5-19.8-4.4
		c-5.7-2.9-10.6-6.9-14.5-11.8c-3.9-4.9-6.9-10.6-8.9-17.1c-2-6.5-3-13.2-3-20.3C654.2,256,655.2,249.3,657.2,242.8z M660.9,281.9
		c1.8,6,4.5,11.3,8.1,15.9c3.6,4.6,8,8.3,13.3,11c5.3,2.7,11.4,4.1,18.3,4.1c6.8,0,12.8-1.4,18.1-4.1c5.3-2.7,9.7-6.4,13.3-11
		c3.6-4.6,6.3-9.9,8.1-15.9s2.7-12.3,2.7-18.8c0-6.4-0.9-12.6-2.7-18.6s-4.5-11.3-8.1-15.9c-3.6-4.6-8-8.3-13.3-11.1
		c-5.3-2.8-11.3-4.2-18.1-4.2c-6.9,0-13,1.4-18.3,4.2c-5.3,2.8-9.7,6.5-13.3,11.1c-3.6,4.6-6.3,9.9-8.1,15.9s-2.7,12.2-2.7,18.6
		C658.2,269.6,659.1,275.9,660.9,281.9z"/>
</g>
<g id="XMLID_1_">
	<polygon id="XMLID_7_" class="st1" points="778.6,368.5 757.3,331 778.6,293.5 821.1,293.5 842.3,331 821.1,368.5 	"/>
	<g id="XMLID_4_">
		<line id="XMLID_5_" class="st1" x1="759.6" y1="401.9" x2="840" y2="260.1"/>
	</g>
</g>
</svg>
